<svg xmlns="http://www.w3.org/2000/svg" viewBox="0 0 76.853 100" role="img" aria-labelledby="title desc">
  <title id="title">Erster Advent Bern logo mark</title>
  <desc id="desc">Black letter A with a white flame-shaped cutout.</desc>
  <path fill="#000" fill-rule="evenodd" d="M48.931 0H28.336L0 100h19.213l5.253-19.716h28.06L57.64 100h19.213L48.931 0ZM44.115 62.987c-.245-5.699-5.689-17.087-5.689-17.087s-5.445 11.389-5.69 17.087c-1.915-2.854-3.132-7.121-3.132-11.891 0-8.594 8.821-28.982 8.821-28.982s8.822 20.388 8.822 28.983c0 4.77-1.218 9.036-3.133 11.89Z"/>
  <path fill="#fff" d="M44.115 62.987c-.245-5.699-5.69-17.087-5.69-17.087s-5.444 11.388-5.689 17.087c-1.915-2.854-3.132-7.121-3.132-11.891 0-8.594 8.821-28.983 8.821-28.983s8.822 20.388 8.822 28.983c0 4.77-1.218 9.036-3.132 11.89Z"/>
  <path fill="#2B2E34" d="M34.198 68.075h8.587L38.58 51.73l-4.382 16.345Z"/>
</svg>
